<svg width="106" height="61" viewBox="0 0 106 61" fill="none" xmlns="http://www.w3.org/2000/svg">
<path d="M53 57.5455L53 3" stroke="#F50057" stroke-width="5" stroke-linecap="round"/>
<path d="M34.8182 5.72727L3 5.72727L3 55.7273L34.8182 55.7273" stroke="#212121" stroke-width="5" stroke-linecap="round" stroke-linejoin="round"/>
<path d="M20.2473 35.1582C19.846 35.5944 19.259 35.9459 18.4862 36.2125C17.7134 36.4791 16.8663 36.6124 15.9449 36.6124C14.5281 36.6124 13.3961 36.1883 12.5491 35.3399C11.7019 34.4916 11.2487 33.3112 11.1893 31.7988L11.1818 30.8826C11.1818 29.8404 11.3701 28.9315 11.7466 28.1559C12.1231 27.3754 12.6605 26.7767 13.359 26.3598C14.0624 25.9381 14.8749 25.7273 15.7963 25.7273C17.1437 25.7273 18.189 26.0302 18.932 26.6362C19.6801 27.2373 20.116 28.1365 20.2398 29.3338H17.7283C17.6391 28.7424 17.4459 28.3207 17.1486 28.0686C16.8515 27.8165 16.4304 27.6905 15.8855 27.6905C15.2315 27.6905 14.7263 27.9619 14.3696 28.5049C14.0129 29.0478 13.8321 29.8234 13.8271 30.8317V31.4716C13.8271 32.5284 14.0104 33.3234 14.377 33.8566C14.7486 34.385 15.3306 34.6491 16.1232 34.6491C16.8019 34.6491 17.3072 34.5013 17.6391 34.2056V32.5623H15.826V30.8099H20.2473V35.1582ZM25.7237 30.4754L27.7151 25.8799H30.5313L27.0464 32.6641V36.467H24.401V32.6641L20.9235 25.8799H23.7248L25.7237 30.4754ZM34.7445 25.8799L37.1595 33.2458L39.567 25.8799H43V36.467H40.3844V33.9947L40.637 28.9339L38.0214 36.467H36.2975L33.6745 28.9266L33.9271 33.9947V36.467H31.319V25.8799H34.7445Z" fill="#F50057"/>
<path d="M71.1818 54.8182L103 54.8182L103 4.81818L71.1818 4.81818" stroke="#212121" stroke-width="5" stroke-linecap="round" stroke-linejoin="round"/>
<path d="M61.2039 34.9943H66.012V36.4636H59.3636V25.8728H61.2039V34.9943ZM75.4099 31.4446C75.4099 32.4824 75.2305 33.394 74.8716 34.1796C74.5128 34.9603 73.9988 35.5617 73.3296 35.9835C72.6651 36.4005 71.899 36.6091 71.0309 36.6091C70.1726 36.6091 69.4064 36.4005 68.7324 35.9835C68.0632 35.5617 67.5443 34.9627 67.1758 34.1868C66.8121 33.411 66.6278 32.5163 66.623 31.5028V30.9064C66.623 29.8734 66.8048 28.9617 67.1685 28.1714C67.5371 27.3809 68.0535 26.7772 68.7179 26.3601C69.3871 25.9382 70.1533 25.7273 71.0165 25.7273C71.8796 25.7273 72.6434 25.9358 73.3077 26.3529C73.9769 26.765 74.4933 27.3616 74.8571 28.1422C75.2207 28.9181 75.405 29.8225 75.4099 30.8554V31.4446ZM73.5696 30.8918C73.5696 29.7183 73.3465 28.8187 72.9004 28.1931C72.4591 27.5676 71.8311 27.2548 71.0165 27.2548C70.2211 27.2548 69.598 27.5676 69.1471 28.1931C68.7009 28.8138 68.473 29.694 68.4633 30.8336V31.4446C68.4633 32.6084 68.6888 33.508 69.1398 34.1432C69.5956 34.7785 70.226 35.0961 71.0309 35.0961C71.8456 35.0961 72.4712 34.7858 72.9076 34.1651C73.3489 33.5444 73.5696 32.6376 73.5696 31.4446V30.8918ZM85.3606 35.0889C84.9775 35.5883 84.4465 35.9665 83.7676 36.2236C83.0887 36.4806 82.3176 36.6091 81.4545 36.6091C80.5671 36.6091 79.7815 36.4078 79.0977 36.0054C78.414 35.6029 77.8855 35.0282 77.512 34.2814C77.1435 33.5298 76.9519 32.6545 76.9374 31.6555V30.8263C76.9374 29.2261 77.3205 27.9774 78.0867 27.0803C78.8529 26.1783 79.9221 25.7273 81.2945 25.7273C82.4728 25.7273 83.4088 26.0183 84.1022 26.6002C84.7957 27.1821 85.2127 28.021 85.3533 29.1169H83.5494C83.3457 27.8416 82.6062 27.2039 81.3309 27.2039C80.5065 27.2039 79.8785 27.5022 79.4469 28.0986C79.0202 28.6902 78.7996 29.5607 78.785 30.71V31.5246C78.785 32.669 79.025 33.5589 79.5051 34.1941C79.99 34.8245 80.6617 35.1398 81.52 35.1398C82.4607 35.1398 83.1299 34.9264 83.5275 34.4997V32.4266H81.3454V31.03H85.3606V35.0889ZM95.835 31.4446C95.835 32.4824 95.6556 33.394 95.2968 34.1796C94.9379 34.9603 94.4239 35.5617 93.7547 35.9835C93.0903 36.4005 92.3242 36.6091 91.4561 36.6091C90.5978 36.6091 89.8316 36.4005 89.1576 35.9835C88.4884 35.5617 87.9695 34.9627 87.6009 34.1868C87.2373 33.411 87.053 32.5163 87.0482 31.5028V30.9064C87.0482 29.8734 87.23 28.9617 87.5936 28.1714C87.9622 27.3809 88.4787 26.7772 89.143 26.3601C89.8122 25.9382 90.5784 25.7273 91.4415 25.7273C92.3047 25.7273 93.0685 25.9358 93.7329 26.3529C94.4021 26.765 94.9185 27.3616 95.2822 28.1422C95.6459 28.9181 95.8302 29.8225 95.835 30.8554V31.4446ZM93.9947 30.8918C93.9947 29.7183 93.7717 28.8187 93.3255 28.1931C92.8842 27.5676 92.2562 27.2548 91.4415 27.2548C90.6463 27.2548 90.0232 27.5676 89.5722 28.1931C89.126 28.8138 88.8981 29.694 88.8884 30.8336V31.4446C88.8884 32.6084 89.1139 33.508 89.5649 34.1432C90.0208 34.7785 90.6512 35.0961 91.4561 35.0961C92.2708 35.0961 92.8964 34.7858 93.3328 34.1651C93.7741 33.5444 93.9947 32.6376 93.9947 31.4446V30.8918Z" fill="#212121"/>
</svg>
