<svg width="66" height="93" viewBox="0 0 66 93" fill="none" xmlns="http://www.w3.org/2000/svg">
<path d="M3 47L63 47" stroke="#F50057" stroke-width="5" stroke-linecap="round"/>
<path d="M60 38L60 3L5 3L5 38" stroke="#FAFAFA" stroke-width="5" stroke-linecap="round" stroke-linejoin="round"/>
<path d="M23.4434 28.418C22.9688 28.9453 22.2744 29.3701 21.3604 29.6924C20.4463 30.0146 19.4443 30.1758 18.3545 30.1758C16.6787 30.1758 15.3398 29.6631 14.3379 28.6377C13.3359 27.6123 12.7998 26.1855 12.7295 24.3574L12.7207 23.25C12.7207 21.9902 12.9434 20.8916 13.3887 19.9541C13.834 19.0107 14.4697 18.2871 15.2959 17.7832C16.1279 17.2734 17.0889 17.0186 18.1787 17.0186C19.7725 17.0186 21.0088 17.3848 21.8877 18.1172C22.7725 18.8438 23.2881 19.9307 23.4346 21.3779H20.4639C20.3584 20.6631 20.1299 20.1533 19.7783 19.8486C19.4268 19.5439 18.9287 19.3916 18.2842 19.3916C17.5107 19.3916 16.9131 19.7197 16.4912 20.376C16.0693 21.0322 15.8555 21.9697 15.8496 23.1885V23.9619C15.8496 25.2393 16.0664 26.2002 16.5 26.8447C16.9395 27.4834 17.6279 27.8027 18.5654 27.8027C19.3682 27.8027 19.9658 27.624 20.3584 27.2666V25.2803H18.2139V23.1621H23.4434V28.418ZM29.9209 22.7578L32.2764 17.2031H35.6074L31.4854 25.4033V30H28.3564V25.4033L24.2432 17.2031H27.5566L29.9209 22.7578ZM40.5908 17.2031L43.4473 26.1064L46.2949 17.2031H50.3555V30H47.2617V27.0117L47.5605 20.8945L44.4668 30H42.4277L39.3252 20.8857L39.624 27.0117V30H36.5391V17.2031H40.5908Z" fill="#F50057"/>
<path d="M6 55V90H61V55" stroke="#FAFAFA" stroke-width="5" stroke-linecap="round" stroke-linejoin="round"/>
<path d="M13.5244 75.2246H19.334V77H11.3008V64.2031H13.5244V75.2246ZM30.6895 70.9355C30.6895 72.1895 30.4727 73.291 30.0391 74.2402C29.6055 75.1836 28.9844 75.9102 28.1758 76.4199C27.373 76.9238 26.4473 77.1758 25.3984 77.1758C24.3613 77.1758 23.4355 76.9238 22.6211 76.4199C21.8125 75.9102 21.1855 75.1865 20.7402 74.249C20.3008 73.3115 20.0781 72.2305 20.0723 71.0059V70.2852C20.0723 69.0371 20.292 67.9355 20.7314 66.9805C21.1768 66.0254 21.8008 65.2959 22.6035 64.792C23.4121 64.2822 24.3379 64.0273 25.3809 64.0273C26.4238 64.0273 27.3467 64.2793 28.1494 64.7832C28.958 65.2812 29.582 66.002 30.0215 66.9453C30.4609 67.8828 30.6836 68.9756 30.6895 70.2236V70.9355ZM28.4658 70.2676C28.4658 68.8496 28.1963 67.7627 27.6572 67.0068C27.124 66.251 26.3652 65.873 25.3809 65.873C24.4199 65.873 23.667 66.251 23.1221 67.0068C22.583 67.7568 22.3076 68.8203 22.2959 70.1973V70.9355C22.2959 72.3418 22.5684 73.4287 23.1133 74.1963C23.6641 74.9639 24.4258 75.3477 25.3984 75.3477C26.3828 75.3477 27.1387 74.9727 27.666 74.2227C28.1992 73.4727 28.4658 72.377 28.4658 70.9355V70.2676ZM42.7129 75.3389C42.25 75.9424 41.6084 76.3994 40.7881 76.71C39.9678 77.0205 39.0361 77.1758 37.9932 77.1758C36.9209 77.1758 35.9717 76.9326 35.1455 76.4463C34.3193 75.96 33.6807 75.2656 33.2295 74.3633C32.7842 73.4551 32.5527 72.3975 32.5352 71.1904V70.1885C32.5352 68.2549 32.998 66.7461 33.9238 65.6621C34.8496 64.5723 36.1416 64.0273 37.7998 64.0273C39.2236 64.0273 40.3545 64.3789 41.1924 65.082C42.0303 65.7852 42.5342 66.7988 42.7041 68.123H40.5244C40.2783 66.582 39.3848 65.8115 37.8438 65.8115C36.8477 65.8115 36.0889 66.1719 35.5674 66.8926C35.0518 67.6074 34.7852 68.6592 34.7676 70.0479V71.0322C34.7676 72.415 35.0576 73.4902 35.6377 74.2578C36.2236 75.0195 37.0352 75.4004 38.0723 75.4004C39.209 75.4004 40.0176 75.1426 40.498 74.627V72.1221H37.8613V70.4346H42.7129V75.3389ZM55.3691 70.9355C55.3691 72.1895 55.1523 73.291 54.7188 74.2402C54.2852 75.1836 53.6641 75.9102 52.8555 76.4199C52.0527 76.9238 51.127 77.1758 50.0781 77.1758C49.041 77.1758 48.1152 76.9238 47.3008 76.4199C46.4922 75.9102 45.8652 75.1865 45.4199 74.249C44.9805 73.3115 44.7578 72.2305 44.752 71.0059V70.2852C44.752 69.0371 44.9717 67.9355 45.4111 66.9805C45.8564 66.0254 46.4805 65.2959 47.2832 64.792C48.0918 64.2822 49.0176 64.0273 50.0605 64.0273C51.1035 64.0273 52.0264 64.2793 52.8291 64.7832C53.6377 65.2812 54.2617 66.002 54.7012 66.9453C55.1406 67.8828 55.3633 68.9756 55.3691 70.2236V70.9355ZM53.1455 70.2676C53.1455 68.8496 52.876 67.7627 52.3369 67.0068C51.8037 66.251 51.0449 65.873 50.0605 65.873C49.0996 65.873 48.3467 66.251 47.8018 67.0068C47.2627 67.7568 46.9873 68.8203 46.9756 70.1973V70.9355C46.9756 72.3418 47.248 73.4287 47.793 74.1963C48.3438 74.9639 49.1055 75.3477 50.0781 75.3477C51.0625 75.3477 51.8184 74.9727 52.3457 74.2227C52.8789 73.4727 53.1455 72.377 53.1455 70.9355V70.2676Z" fill="#FAFAFA"/>
</svg>
