<svg width="285" height="117" viewBox="0 0 285 117" fill="none" xmlns="http://www.w3.org/2000/svg">
<g clip-path="url(#clip0)">
<path d="M87.8956 62.5378C87.183 46.1858 80.3839 30.814 68.7509 19.2549C57.1116 7.68874 41.6868 0.988569 25.3167 0.386682C24.8535 0.371356 24.4055 0.526008 24.0544 0.824165L23.7493 1.08401C23.1809 1.56677 22.9593 2.34491 23.1878 3.05547C24.3742 6.73785 24.9754 10.5846 24.9754 14.4885C24.9754 29.6075 15.9499 43.1137 1.98176 48.8978C1.2921 49.1827 0.842773 49.9017 0.842773 50.6477C0.842773 67.6058 7.32908 83.6603 19.1077 95.8541C30.8563 108.017 46.6162 115.057 63.4843 115.679C63.5073 115.679 63.5296 115.68 63.5519 115.68C63.9852 115.68 64.406 115.528 64.739 115.247C78.6653 103.539 87.1049 86.4259 87.8956 68.2961C87.897 68.269 87.8977 68.2348 87.8977 68.2077V62.6179C87.8977 62.5914 87.897 62.565 87.8956 62.5378ZM26.2697 88.9359C17.5103 79.8671 12.1205 68.0516 11.0149 55.552C25.7995 47.198 34.9323 31.5754 34.9323 14.4878C34.9323 13.5265 34.903 12.5617 34.8445 11.5996C45.016 13.8455 54.27 18.9024 61.7316 26.3173C71.5408 36.0652 77.2964 49.0204 77.9394 62.8004V68.0328C77.279 82.1625 71.0058 95.7775 60.6916 105.522C47.6325 104.294 35.4346 98.4239 26.2697 88.9359Z" fill="#1DE9B6"/>
</g>
<g clip-path="url(#clip1)">
<path d="M159.181 70.4667C159.181 83.3738 148.282 94.1772 135.471 94.1772C129.639 94.1772 124.572 92.074 120.461 88.7274V116.262H111.76V70.8491V70.4667C111.76 70.4667 111.76 70.4667 111.76 70.0842V55.074C111.76 53.4487 110.423 52.206 108.797 52.206V46.7562H116.254H120.461V52.206C124.572 48.8601 129.639 46.7562 135.471 46.7562C148.282 46.7562 159.181 57.1778 159.181 70.4667ZM149.525 70.4667C149.525 62.5314 143.311 56.3175 135.471 56.3175C127.535 56.3175 121.322 62.5314 121.322 70.4667C121.322 78.402 127.535 84.6166 135.471 84.6166C143.311 84.6166 149.525 78.402 149.525 70.4667Z" fill="white"/>
<path d="M176.869 49.5288V94.5596H167.787V54.2136C167.309 53.067 166.544 52.3021 165.397 52.3021V46.7562H172.567H174.097C175.722 46.7562 176.869 47.9036 176.869 49.5288ZM165.97 30.3123C165.97 27.0611 168.456 24.7671 171.611 24.7671C174.766 24.7671 177.157 27.0611 177.157 30.3123C177.157 33.4673 174.766 35.8575 171.611 35.8575C168.456 35.8568 165.97 33.4673 165.97 30.3123Z" fill="white"/>
<path d="M235.188 70.4667C235.188 83.3738 224.289 94.1772 211.478 94.1772C205.646 94.1772 200.579 92.074 196.468 88.7274V116.262H187.767V70.8491V70.4667C187.767 70.4667 187.767 70.4667 187.767 70.0842V55.074C187.767 53.4487 186.43 52.206 184.804 52.206V46.7562H192.261H196.468V52.206C200.579 48.8601 205.646 46.7562 211.478 46.7562C224.289 46.7562 235.188 57.1778 235.188 70.4667ZM225.531 70.4667C225.531 62.5314 219.317 56.3175 211.477 56.3175C203.542 56.3175 197.328 62.5314 197.328 70.4667C197.328 78.402 203.542 84.6166 211.477 84.6166C219.317 84.6166 225.531 78.402 225.531 70.4667Z" fill="white"/>
<path d="M263.01 94.1772C250.869 94.1772 240.926 83.5647 240.926 70.4667C240.926 57.3687 250.869 46.7562 263.01 46.7562C275.152 46.7562 285 57.3687 285 70.4667C285 83.5647 275.152 94.1772 263.01 94.1772ZM263.01 56.3175C256.127 56.3175 250.486 62.6268 250.486 70.4667C250.486 78.3066 256.127 84.6166 263.01 84.6166C269.894 84.6166 275.534 78.3066 275.534 70.4667C275.534 62.6268 269.894 56.3175 263.01 56.3175Z" fill="white"/>
</g>
<defs>
<clipPath id="clip0">
<rect width="87.0549" height="115.294" fill="white" transform="translate(0.842773 0.385132)"/>
</clipPath>
<clipPath id="clip1">
<rect width="176.203" height="91.4945" fill="white" transform="translate(108.797 24.7671)"/>
</clipPath>
</defs>
</svg>
