<svg width="50" height="50" viewBox="0 0 50 50" fill="none" xmlns="http://www.w3.org/2000/svg">
<path d="M44.1834 46.0918H40.886V36.8633C40.886 36.4585 40.5579 36.1305 40.1532 36.1305C39.7484 36.1305 39.4204 36.4585 39.4204 36.8633V46.0918H11.5743V39.5827C11.5743 38.808 11.9088 38.071 12.4921 37.5606L14.1877 36.077C19.7682 31.1939 26.9254 28.5049 34.3407 28.5049H36.7337C38.2149 28.5049 39.4204 29.7099 39.4204 31.1916V33.4712C39.4204 33.876 39.7484 34.2044 40.1532 34.2044C40.5579 34.2044 40.886 33.876 40.886 33.4712V31.1916C40.886 29.1023 39.3342 27.3689 37.3227 27.0816L39.5703 20.4078L40.8783 20.6821C41.0321 20.7145 41.187 20.7305 41.3411 20.7305C41.8488 20.7305 42.344 20.557 42.7475 20.2297C43.2732 19.8028 43.5746 19.17 43.5746 18.4929V16.193C43.5746 14.6843 42.347 13.4571 40.8387 13.4571H30.8724C29.3641 13.4571 28.1369 14.6843 28.1369 16.193C28.1369 17.2454 28.8846 18.1659 29.9145 18.3822L34.274 19.2966L31.6277 27.1553C27.4575 27.5093 23.4147 28.6731 19.719 30.5663C19.2029 29.5726 18.7222 28.5423 18.2878 27.4929C16.4521 23.0606 15.4801 18.4604 15.4759 14.1891C15.4756 13.7848 15.1475 13.4571 14.7431 13.4571C14.7431 13.4571 14.7428 13.4571 14.7424 13.4571C14.338 13.4575 14.01 13.7859 14.0103 14.1906C14.0145 18.6519 15.0254 23.4458 16.9335 28.0536C17.3875 29.15 17.8903 30.2265 18.4304 31.2644C17.7224 31.6692 17.0297 32.1021 16.3522 32.561C15.7453 31.4075 15.1826 30.2093 14.6768 28.9882C12.4108 23.5168 11.3649 17.7898 11.617 12.6026C11.7025 12.6091 11.7879 12.6133 11.8737 12.6133C12.7401 12.6133 13.6064 12.2833 14.2655 11.6241L14.8217 11.0683L15.986 12.2326C16.3163 12.5629 16.7501 12.7281 17.1838 12.7281C17.6175 12.7281 18.0512 12.5629 18.3812 12.2326L19.7328 10.8814C20.0528 10.5613 20.2287 10.1364 20.2287 9.68359C20.2287 9.23117 20.0528 8.80621 19.7328 8.48616L12.8011 1.55487C12.4814 1.23482 12.0561 1.05858 11.6037 1.05858C11.1512 1.05858 10.7259 1.23482 10.4058 1.55449L9.05468 2.90603C8.39397 3.56635 8.39397 4.64095 9.05468 5.30127L10.9109 7.1575C10.6561 8.20425 10.4631 9.28801 10.3315 10.4015L6.51753 6.58759C5.96783 6.03789 5.66494 5.30661 5.66494 4.52918V0.732802C5.66494 0.328063 5.33688 0 4.93214 0C4.5274 0 4.19934 0.328063 4.19934 0.732802V4.52918C4.19934 5.69838 4.65481 6.7974 5.48146 7.62404L9.48154 11.6241C9.69326 11.8358 9.92672 12.0132 10.1747 12.157C9.84356 17.6616 10.9224 23.7525 13.3226 29.5493C13.8711 30.8734 14.4837 32.1723 15.1471 33.4194C14.4883 33.9114 13.8455 34.4291 13.2226 34.9742L11.527 36.4578C10.6256 37.2462 10.1087 38.3853 10.1087 39.5827V46.0918H6.81126C5.96287 46.0918 5.27241 46.7822 5.27241 47.6306V48.4611C5.27241 49.3098 5.96287 49.9999 6.81126 49.9999H44.1834C45.0322 49.9999 45.7222 49.3098 45.7222 48.4611V47.6306C45.7222 46.7822 45.0322 46.0918 44.1834 46.0918V46.0918ZM10.0907 3.9421L11.4423 2.59094C11.4976 2.53562 11.5605 2.52418 11.6037 2.52418C11.6468 2.52418 11.7097 2.53562 11.765 2.59094L18.6963 9.52223C18.7516 9.57754 18.7631 9.64048 18.7631 9.68359C18.7631 9.7267 18.7516 9.78964 18.6963 9.84495L17.3451 11.1965C17.2563 11.2854 17.1113 11.2854 17.0224 11.1965L10.0911 4.26482C10.0019 4.17594 10.0019 4.03098 10.0907 3.9421ZM13.7853 10.0319L13.2295 10.5877C12.8175 10.9997 12.2636 11.1831 11.7242 11.1412C11.8169 10.1993 11.9535 9.27771 12.1366 8.38316L13.7853 10.0319ZM29.6025 16.193C29.6025 15.4926 30.172 14.9231 30.8728 14.9231H40.8387C41.5391 14.9231 42.109 15.4926 42.109 16.193V18.4932C42.109 18.7267 42.0048 18.9449 41.8236 19.0921C41.6424 19.239 41.4074 19.2962 41.1789 19.2482L30.2155 16.9479C29.8604 16.8735 29.6025 16.5561 29.6025 16.193V16.193ZM35.7182 19.5999L38.1257 20.1049L35.7907 27.0393H34.3407C33.9616 27.0393 33.5835 27.0481 33.2059 27.0614L35.7182 19.5999ZM44.2566 48.4611C44.2566 48.5015 44.2238 48.5343 44.1834 48.5343H6.81126C6.77082 48.5343 6.73802 48.5015 6.73802 48.4611V47.6306C6.73802 47.5902 6.77082 47.5574 6.81126 47.5574H40.1524H40.1532H40.1543H44.1838C44.2238 47.5574 44.257 47.5902 44.257 47.6306V48.4611H44.2566Z" fill="#ff1744"/>
<path d="M24.7929 40.6516C24.3897 40.6898 24.0941 41.0472 24.1326 41.4504C24.1685 41.8296 24.4877 42.1138 24.8612 42.1138C24.8845 42.1138 24.9077 42.1127 24.9314 42.1108C27.6768 41.8498 29.7475 39.5709 29.7475 36.8099C29.7475 33.8737 27.3587 31.4849 24.4225 31.4849C21.4867 31.4849 19.0976 33.8737 19.0976 36.8099C19.0976 38.1374 19.5908 39.4 20.4674 40.372L20.0673 40.8447C19.9044 40.7947 19.732 40.7672 19.5527 40.7672H15.7521C14.7828 40.7672 13.9939 41.5561 13.9939 42.5254V43.6981C13.9939 44.6674 14.7828 45.4559 15.7521 45.4559H19.5527C20.5224 45.4559 21.3109 44.6674 21.3109 43.6981V42.5254C21.3109 42.2744 21.2571 42.036 21.1621 41.8197L22.028 40.797C22.028 40.797 22.028 40.7966 22.0284 40.7966C22.0284 40.7966 22.0284 40.7966 22.0284 40.7962L25.0023 37.2833C25.264 36.9743 25.2255 36.5119 24.9165 36.2502C24.6075 35.9889 24.1452 36.0275 23.8839 36.3361L21.4261 39.2394C20.8722 38.5574 20.5636 37.704 20.5636 36.8095C20.5636 34.6816 22.2947 32.9501 24.4229 32.9501C26.5507 32.9501 28.2822 34.6816 28.2822 36.8095C28.2818 38.8111 26.7819 40.4628 24.7929 40.6516V40.6516ZM19.8453 43.6981C19.8453 43.8594 19.714 43.9906 19.5527 43.9906H15.7521C15.5907 43.9906 15.4595 43.8594 15.4595 43.6981V42.5254C15.4595 42.3641 15.5907 42.2328 15.7521 42.2328H19.5527C19.6332 42.2328 19.706 42.2656 19.759 42.3183C19.759 42.3187 19.7594 42.3187 19.7598 42.319C19.8125 42.3721 19.8453 42.4449 19.8453 42.5254V43.6981Z" fill="#ff1744"/>
</svg>
