<svg width="50" height="50" viewBox="0 0 50 50" fill="none" xmlns="http://www.w3.org/2000/svg">
<g clip-path="url(#clip0)">
<path d="M49.2187 47.9519H42.1557C41.8724 46.798 40.9741 45.8667 39.7795 45.5681L38.0809 45.1432L40.2279 34.7308C40.6399 32.7301 39.5046 30.693 37.5393 30.0137C32.7357 28.3467 34.3787 29.0847 29.96 28.0756C31.4976 27.141 33.6157 25.8036 34.2767 25.1426C35.0508 24.3674 37.4069 22.008 37.4069 19.7514C37.4069 19.1153 37.2148 18.4144 36.8351 17.6616L49.1692 5.32745C49.7049 4.79184 49.9999 4.07958 49.9999 3.322C49.9999 0.811212 46.9401 -0.465178 45.1584 1.31655C44.8533 1.62161 44.8533 2.11621 45.1584 2.42127C45.4635 2.72633 45.9581 2.72633 46.2631 2.42127C47.0637 1.62093 48.4375 2.19463 48.4375 3.32191C48.4375 3.66212 48.305 3.98192 48.0645 4.22254L33.6902 18.597C33.1965 19.0905 33.5529 19.9306 34.2426 19.9306C34.6663 19.9306 34.7892 19.7076 35.6512 18.8456C35.7774 19.1807 35.8445 19.487 35.8445 19.7514C35.8445 20.8198 34.9451 22.2622 33.1672 24.0425C32.5347 24.675 29.6613 26.4542 27.7413 27.5825L25.0984 27.2521C24.6701 27.1981 24.2799 27.5022 24.2264 27.9304C24.1729 28.3585 24.4765 28.7489 24.9046 28.8024L27.7656 29.1601C34.4097 30.7893 31.7954 29.6915 37.0401 31.4944C38.242 31.9126 38.9547 33.1685 38.698 34.4154L37.7045 39.2337H35.1479L35.5604 35.6183C35.61 35.1832 35.2917 34.7914 34.8547 34.7518C25.5312 33.9059 26.4052 34.9328 23.2059 33.8191C22.9962 33.7483 22.6778 33.6245 22.4546 33.509C20.5447 32.5204 20.134 29.6575 20.7375 28.0479C21.4773 27.5243 22.2144 26.9184 22.9288 26.2457C23.2429 25.9499 23.2578 25.4555 22.962 25.1413C22.6662 24.8273 22.1719 24.8124 21.8577 25.1081C21.052 25.8667 20.0451 26.6462 19.9813 26.661C19.7846 26.7068 19.73 26.7713 18.9527 27.2819C17.0103 28.5582 17.387 28.3102 7.31389 36.7772L1.21288 40.8476C0.144784 41.5602 -0.277164 42.8941 0.186773 44.0914C1.45144 47.3549 1.44959 47.4531 1.80172 47.9519H0.784101C0.352681 47.9519 0.00289745 48.3017 0.00289745 48.7331C0.00289745 49.1645 0.352681 49.5143 0.784101 49.5143H49.2187C49.6502 49.5143 49.9999 49.1645 49.9999 48.7331C49.9999 48.3017 49.6502 47.9519 49.2187 47.9519ZM18.9235 29.1825C18.798 31.1582 19.5474 33.3713 21.1805 34.5519C18.2754 35.9036 14.3774 37.4547 9.59598 39.9206L8.71293 37.6422C16.4527 31.1353 17.7463 30.0073 18.9235 29.1825V29.1825ZM2.08002 42.1474L7.40617 38.5939L8.22302 40.7015L4.59706 43.0108C4.33106 43.1802 4.19298 43.493 4.24708 43.8036L4.96784 47.9457C4.06115 48.0112 3.17732 47.4847 2.83212 46.594L1.64362 43.5269C1.44627 43.0176 1.62575 42.4504 2.08002 42.1474V42.1474ZM5.8756 44.0489C9.42773 41.7867 9.95914 41.2168 18.8169 37.3215C20.414 36.6192 21.8073 36.0054 23.0181 35.4019C26.2257 36.4205 25.997 35.5606 33.917 36.2376C32.7801 46.2021 33.0632 44.2631 32.5949 46.1363C32.4403 46.7545 32.506 47.3909 32.7711 47.9518H6.55476L5.8756 44.0489ZM35.2323 47.9519C34.4805 47.9519 33.9279 47.2458 34.1106 46.5154C34.6114 44.5123 34.3936 45.842 34.9694 40.7962H37.382L36.3995 45.5615C36.3149 45.9716 36.5687 46.3755 36.975 46.4771L39.4005 47.0838C39.8875 47.2056 40.2801 47.529 40.4987 47.9519H35.2323Z" fill="#ff1744"/>
<path d="M27.1461 8.3755C27.2569 9.91067 27.8862 11.3329 28.9335 12.4626C28.2336 15.3314 27.1527 17.9737 25.7161 20.3211C25.4908 20.6891 25.6065 21.17 25.9745 21.3952C26.3447 21.6219 26.8248 21.5025 27.0487 21.1368C28.444 18.8569 29.5221 16.3199 30.2607 13.5804C30.6521 13.8344 31.0666 14.0475 31.4963 14.2172L31.9318 14.5435L30.7844 15.6909C30.2908 16.1844 30.6471 17.0245 31.3368 17.0245C31.5367 17.0245 31.7367 16.9482 31.8892 16.7957C40.0068 8.67812 25.5397 23.1452 41.9044 6.78058C43.377 5.30791 44.1881 3.34992 44.1881 1.26723C44.1881 0.835807 43.8383 0.486023 43.4069 0.486023C42.9755 0.486023 42.6257 0.835807 42.6257 1.26723C42.6257 2.93256 41.9772 4.49829 40.7996 5.67586L37.4073 9.06824C37.4073 7.25399 37.5408 6.21879 36.7483 4.82337C35.4052 2.45642 32.3645 1.58479 29.9101 2.81968C28.7346 0.810711 25.6744 1.08521 24.8979 3.28332L24.374 4.77181C23.7297 6.59475 25.1726 8.48604 27.1461 8.3755V8.3755ZM35.1387 5.21739C34.4044 6.24155 33.2184 6.84249 31.9487 6.85967C30.8084 6.87559 30.8853 8.42394 31.8927 8.42394C33.3578 8.42394 34.7746 7.85239 35.8139 6.82706C35.8555 7.13134 35.8447 6.93779 35.8447 10.6304L33.3696 13.1055C32.3508 12.9666 31.429 12.5557 30.6858 11.9637L31.3433 10.332C31.5195 9.89455 31.271 9.38833 30.7913 9.27906C30.4237 9.19508 30.0391 9.38716 29.8938 9.74808L29.5178 10.6816C28.9809 9.85364 28.6887 8.89637 28.6887 7.88471C28.6887 7.7853 28.6777 7.81216 28.7439 7.75845C29.1599 7.42146 29.4452 6.9876 29.5997 6.55198C30.1233 5.06583 30.2274 4.84309 30.2665 4.41333C31.8327 3.39337 33.9834 3.71415 35.1387 5.21739V5.21739ZM25.8472 5.29131L26.3712 3.80272C26.5416 3.32052 27.009 3.01771 27.5105 3.01771C28.3307 3.01771 28.9161 3.79091 28.6503 4.54467C28.1412 5.9897 28.1076 6.36507 27.6078 6.65119C26.6093 7.21453 25.4979 6.28051 25.8472 5.29131V5.29131Z" fill="#ff1744"/>
<path d="M24.0274 23.9876C24.363 24.2573 24.8576 24.2017 25.1284 23.8647C25.1682 23.8153 25.2079 23.7658 25.2477 23.7154C25.5149 23.3767 25.4568 22.8855 25.1181 22.6183C24.7793 22.351 24.2881 22.409 24.021 22.7479C23.9843 22.7945 23.9476 22.8401 23.9053 22.8926C23.635 23.2289 23.6912 23.7172 24.0274 23.9876V23.9876Z" fill="#ff1744"/>
</g>
<defs>
<clipPath id="clip0">
<rect width="50" height="50" fill="white"/>
</clipPath>
</defs>
</svg>
