<svg width="50" height="50" viewBox="0 0 50 50" fill="none" xmlns="http://www.w3.org/2000/svg">
<g clip-path="url(#clip0)">
<path d="M20.1854 3.07031L20.1854 3.83721L18.0999 3.83721C15.6952 3.83721 13.7388 5.79365 13.7388 8.19844L13.7388 9.28623C12.0251 9.74785 10.76 11.3146 10.76 13.1722C10.76 15.3913 12.5653 17.1967 14.7844 17.1967L21.4443 17.1967L21.4443 32.8034L14.7844 32.8034C12.5653 32.8034 10.76 34.6088 10.76 36.8278C10.76 38.6853 12.0251 40.2521 13.7388 40.7137L13.7388 41.8016C13.7388 44.2063 15.6952 46.1628 18.1 46.1628L20.1854 46.1628L20.1854 46.9297C20.1854 48.6227 21.5628 50 23.2557 50L26.7332 50C28.4261 50 29.8034 48.6227 29.8034 46.9297L29.8034 46.1627L31.9 46.1627C34.3047 46.1627 36.2611 44.2062 36.2611 41.8015L36.2611 40.7136C37.9748 40.252 39.2399 38.6852 39.2399 36.8277C39.2399 34.6086 37.4346 32.8033 35.2155 32.8033L28.5556 32.8033L28.5556 19.4245C28.5556 19.0199 28.2278 18.6921 27.8232 18.6921C27.4186 18.6921 27.0908 19.0199 27.0908 19.4245L27.0908 32.8034L22.909 32.8034L22.909 17.1967L35.2156 17.1967C37.4347 17.1967 39.24 15.3913 39.24 13.1722C39.24 11.3146 37.9749 9.74785 36.2612 9.28623L36.2612 8.19844C36.2612 5.79365 34.3048 3.83721 31.9 3.83721L29.8035 3.83721L29.8035 3.07031C29.8035 1.37734 28.4262 -7.72215e-07 26.7332 -6.98213e-07L23.2558 -5.46209e-07C21.5627 -4.72203e-07 20.1854 1.37734 20.1854 3.07031ZM28.3387 46.1627L28.3387 46.9297L28.3386 46.9297C28.3386 47.8149 27.6184 48.5352 26.7332 48.5352L23.2558 48.5352C22.3706 48.5352 21.6503 47.8149 21.6503 46.9297L21.6503 46.1627L28.3387 46.1627V46.1627ZM35.2156 34.2683C36.6269 34.2683 37.7751 35.4165 37.7751 36.8278C37.7751 38.2393 36.6269 39.3874 35.2156 39.3874L20.4378 39.3874C20.0333 39.3874 19.7054 39.7153 19.7054 40.1198C19.7054 40.5243 20.0333 40.8522 20.4378 40.8522L34.7964 40.8522L34.7964 41.8015C34.7964 43.3985 33.4971 44.6979 31.9001 44.6979L18.0999 44.6979C16.5028 44.6979 15.2036 43.3985 15.2036 41.8015L15.2036 40.8522L17.193 40.8522C17.5976 40.8522 17.9254 40.5243 17.9254 40.1198C17.9254 39.7153 17.5976 39.3874 17.193 39.3874L14.7843 39.3874C13.373 39.3874 12.2248 38.2392 12.2248 36.8278C12.2248 35.4164 13.373 34.2683 14.7843 34.2683L35.2156 34.2683ZM35.2156 10.6125C36.6269 10.6125 37.7751 11.7607 37.7751 13.1722C37.7751 14.5836 36.6269 15.7318 35.2156 15.7318L14.7843 15.7318C13.373 15.7318 12.2248 14.5836 12.2248 13.1722C12.2248 11.7607 13.373 10.6125 14.7843 10.6125L35.2156 10.6125ZM31.9 5.30205C33.497 5.30205 34.7963 6.60137 34.7963 8.19844L34.7963 9.14765L15.2036 9.14766L15.2036 8.19844C15.2036 6.60137 16.5029 5.30205 18.0999 5.30205L31.9 5.30205ZM26.7332 1.46484C27.6184 1.46484 28.3386 2.18506 28.3386 3.07031L28.3386 3.83721L21.6502 3.83721L21.6502 3.07031C21.6502 2.18506 22.3705 1.46484 23.2557 1.46484L26.7332 1.46484Z" fill="#ff1744"/>
</g>
<defs>
<clipPath id="clip0">
<rect width="50" height="50" fill="white" transform="translate(0 50) rotate(-90)"/>
</clipPath>
</defs>
</svg>
