<svg width="50" height="50" viewBox="0 0 50 50" fill="none" xmlns="http://www.w3.org/2000/svg">
<path d="M46.5005 19.7453L43.9288 17.1737C43.2264 16.4713 42.1948 16.2942 41.326 16.6416L39.9186 15.2343C38.386 13.7017 36.3483 12.8576 34.1811 12.8576H33.3708V4.57607C33.3707 2.05283 31.3179 0 28.7946 0H21.2038C18.6806 0 16.6277 2.05283 16.6277 4.57607V7.22656C16.6277 8.17129 18.0926 8.17129 18.0926 7.22656V4.57607C18.0926 2.86055 19.4883 1.46484 21.2038 1.46484H21.9786V5.60723C21.9786 6.99609 22.9316 8.1665 24.2181 8.49902V12.8575H18.0926V10.7422C18.0926 9.79746 16.6277 9.79746 16.6277 10.7422V12.8576H15.8642C13.6968 12.8576 11.6591 13.7017 10.1266 15.2343L8.70517 16.6557C7.82959 16.2904 6.78105 16.4624 6.06972 17.1737L3.49804 19.7453C1.30517 21.9385 4.69756 25.3651 6.90771 23.155L9.47939 20.5834C10.2852 19.7776 10.398 18.5396 9.82236 17.6102L11.1624 16.2701C12.4184 15.0142 14.0881 14.3226 15.8643 14.3226H16.6278V31.7383H16.4761C15.1568 31.7383 14.0835 32.8116 14.0835 34.1309C14.0835 35.4501 15.1568 36.5234 16.4761 36.5234H16.6278V45.2148H6.82812C3.75049 45.2148 3.74131 50 6.82812 50H34.3741C35.3188 50 35.3188 48.5352 34.3741 48.5352H6.82812C5.6372 48.5352 5.63545 46.6797 6.82812 46.6797H43.1702C44.3611 46.6797 44.3629 48.5352 43.1702 48.5352H38.0852C37.1404 48.5352 37.1404 50 38.0852 50H43.1702C46.2479 50 46.257 45.2148 43.1702 45.2148H33.3707V36.5234H33.4819C34.8012 36.5234 35.8745 35.4501 35.8745 34.1309C35.8745 32.8116 34.8012 31.7383 33.4819 31.7383H33.3707V14.3225H34.181C35.9571 14.3225 37.6269 15.0142 38.8828 16.27L40.1936 17.5808C39.5974 18.5134 39.7051 19.7691 40.5192 20.5834L43.0909 23.155C45.2942 25.3583 48.7 21.9449 46.5005 19.7453ZM8.44336 19.5476L5.87168 22.1191C5.01172 22.9791 3.66103 21.6538 4.53359 20.7811L7.10527 18.2095C7.96406 17.3507 9.30342 18.6874 8.44336 19.5476ZM23.4434 5.60723V1.46484H26.4866V5.60723C26.4866 6.44629 25.804 7.12891 24.9649 7.12891C24.1259 7.12891 23.4434 6.44629 23.4434 5.60723ZM25.6828 8.50596C26.9839 8.18369 27.9515 7.00654 27.9515 5.60723V1.46484H28.7946C30.5102 1.46484 31.9059 2.86055 31.9059 4.57607V12.8575H25.6827V8.50596H25.6828ZM22.3137 36.5234V45.2016H18.0925V36.5234H22.3137ZM26.2199 45.2016H23.7785V36.5234H26.2199V45.2016ZM31.9059 45.2016H27.6847V36.5234H31.9059V45.2016ZM34.4097 34.1309C34.4097 34.6424 33.9935 35.0586 33.4819 35.0586H16.4759C15.9644 35.0586 15.5481 34.6424 15.5481 34.1309C15.5481 33.6193 15.9644 33.2031 16.4759 33.2031H33.4819C33.9936 33.2031 34.4097 33.6193 34.4097 34.1309ZM31.9059 31.7383H18.0925V14.3225H31.9059V31.7383V31.7383ZM45.4647 22.1191C45.0959 22.488 44.4957 22.4881 44.1267 22.1191L41.555 19.5476C40.6956 18.6881 42.0302 17.3469 42.8931 18.2095L45.4646 20.7811C45.8336 21.1501 45.8336 21.7503 45.4647 22.1191Z" fill="#ff1744"/>
<path d="M21.2395 29.7852H28.759C29.1635 29.7852 29.4915 29.4572 29.4915 29.0527V17.2363C29.4915 16.8318 29.1635 16.5039 28.759 16.5039H21.2395C20.835 16.5039 20.5071 16.8318 20.5071 17.2363V29.0527C20.5071 29.4572 20.835 29.7852 21.2395 29.7852ZM21.9719 23.877H28.0266V25.3906H21.9719V23.877V23.877ZM28.0266 22.4121H21.9719V20.8984H28.0266V22.4121ZM21.9719 28.3203V26.8555H28.0266V28.3203H21.9719ZM28.0266 17.9688V19.4336H21.9719V17.9688H28.0266Z" fill="#ff1744"/>
</svg>
