<svg width="50" height="50" viewBox="0 0 50 50" fill="none" xmlns="http://www.w3.org/2000/svg">
<path d="M38.6877 6.17447L40.5201 7.17669L41.5224 9.00927C41.5896 9.13227 41.6888 9.23491 41.8094 9.3064C41.93 9.3779 42.0676 9.41563 42.2078 9.41563C42.348 9.41563 42.4856 9.3779 42.6062 9.3064C42.7269 9.23491 42.826 9.13227 42.8933 9.00927L43.8955 7.17669L45.728 6.17447C45.851 6.10721 45.9537 6.00808 46.0252 5.88749C46.0967 5.7669 46.1344 5.62928 46.1344 5.48908C46.1344 5.34888 46.0967 5.21127 46.0252 5.09067C45.9537 4.97007 45.8511 4.87093 45.7281 4.80366L43.8955 3.80135L42.8933 1.96886C42.826 1.84585 42.7269 1.74322 42.6062 1.67172C42.4856 1.60023 42.348 1.5625 42.2078 1.5625C42.0676 1.5625 41.93 1.60023 41.8094 1.67172C41.6888 1.74322 41.5896 1.84585 41.5224 1.96886L40.5201 3.80135L38.6876 4.80371C38.5646 4.87098 38.462 4.97012 38.3905 5.09072C38.319 5.21131 38.2812 5.34893 38.2813 5.48913C38.2813 5.62933 38.319 5.76695 38.3905 5.88754C38.462 6.00813 38.5646 6.10726 38.6877 6.17452V6.17447ZM41.4707 5.06239C41.6018 4.99068 41.7095 4.88291 41.7813 4.75185L42.2078 3.97184L42.6344 4.75185C42.7061 4.88291 42.8139 4.99068 42.945 5.06239L43.725 5.48906L42.945 5.91565C42.8139 5.98732 42.7061 6.09509 42.6344 6.22619L42.2078 7.0062L41.7813 6.22616C41.7096 6.09506 41.6018 5.98728 41.4706 5.91562L40.6907 5.48903L41.4707 5.06239Z" fill="#ff1744"/>
<path d="M1.92828 20.237L3.76075 21.2392L4.76295 23.0718C4.83024 23.1948 4.92938 23.2974 5.04998 23.3689C5.17058 23.4404 5.3082 23.4781 5.44841 23.4781C5.58861 23.4781 5.72623 23.4404 5.84683 23.3689C5.96744 23.2974 6.06658 23.1948 6.13386 23.0718L7.13608 21.2392L8.96857 20.237C9.09158 20.1697 9.19422 20.0706 9.26573 19.95C9.33724 19.8294 9.37497 19.6918 9.37498 19.5516C9.37498 19.4114 9.33726 19.2738 9.26576 19.1532C9.19426 19.0326 9.09162 18.9334 8.96862 18.8662L7.13611 17.8638L6.13389 16.0314C6.06661 15.9084 5.96747 15.8057 5.84686 15.7342C5.72626 15.6627 5.58864 15.625 5.44844 15.625C5.30823 15.625 5.17061 15.6627 5.05001 15.7342C4.92941 15.8057 4.83026 15.9084 4.76298 16.0314L3.76075 17.8638L1.92824 18.8662C1.80523 18.9335 1.70259 19.0326 1.63108 19.1532C1.55958 19.2738 1.52185 19.4114 1.52185 19.5516C1.52185 19.6918 1.55958 19.8294 1.63108 19.95C1.70259 20.0706 1.80523 20.1698 1.92824 20.237L1.92828 20.237ZM4.7113 19.1249C4.84236 19.0532 4.95013 18.9454 5.02185 18.8143L5.44843 18.0343L5.87501 18.8143C5.94673 18.9454 6.0545 19.0532 6.18556 19.1249L6.96557 19.5516L6.18561 19.9781C6.0545 20.0498 5.9467 20.1576 5.875 20.2887L5.44842 21.0687L5.02184 20.2887C4.95014 20.1576 4.84234 20.0498 4.71123 19.9781L3.93126 19.5516L4.7113 19.1249Z" fill="#ff1744"/>
<path d="M48.3589 47.3148L44.0858 38.5198L43.1432 35.6906L41.6608 36.1844L42.6195 39.0621C42.6303 39.0944 42.6431 39.126 42.658 39.1566L46.8749 47.836V48.4375H48.4374V47.6563C48.4374 47.538 48.4106 47.4212 48.3589 47.3148Z" fill="#ff1744"/>
<path d="M39.8284 40.136C39.766 39.9405 39.6292 39.7773 39.4475 39.6818L36.2561 38.0047L32.4705 32.7199C32.6383 32.6331 32.8246 32.5883 33.0135 32.5892C33.2024 32.5901 33.3883 32.6366 33.5553 32.7249L36.2189 34.1305C36.3594 34.2046 36.5191 34.2341 36.6767 34.2152C36.8344 34.1962 36.9826 34.1297 37.1015 34.0244C37.2204 33.9191 37.3043 33.78 37.3422 33.6258C37.3801 33.4716 37.37 33.3094 37.3134 33.1611L33.7481 23.8157C33.7432 23.8029 33.738 23.7903 33.7325 23.7779C33.6245 23.5331 33.6032 23.2588 33.6722 23.0003C33.7411 22.7417 33.8962 22.5145 34.1118 22.356L38.8399 28.6823C38.8439 28.6875 38.8479 28.6928 38.8519 28.6979C39.2379 29.1873 39.5301 29.7439 39.7138 30.3395C39.7155 30.3449 39.7172 30.3502 39.719 30.3556L41.1403 34.6218L42.6227 34.128L41.204 29.8696C40.9646 29.0971 40.5856 28.375 40.0857 27.7392L34.9937 20.9261C34.8972 20.797 34.7631 20.7008 34.6097 20.6509C34.4564 20.601 34.2914 20.5998 34.1373 20.6473L33.9963 20.6908C33.6293 20.8043 33.2903 20.9939 33.0014 21.2471C32.7126 21.5004 32.4803 21.8117 32.3198 22.1607C32.1592 22.5097 32.074 22.8886 32.0698 23.2728C32.0655 23.6569 32.1422 24.0377 32.2949 24.3902L35.1146 31.7811L34.2845 31.3431C33.777 31.0747 33.1979 30.973 32.6294 31.0525C32.0609 31.132 31.5319 31.3887 31.1176 31.7861L30.8726 32.0207C30.7367 32.1507 30.6524 32.3253 30.635 32.5126C30.6175 32.6998 30.6682 32.887 30.7777 33.0398L35.0937 39.0651C35.1646 39.1641 35.2576 39.2451 35.3654 39.3018L38.437 40.916L40.625 47.7777V48.4375H42.1875V47.6562C42.1875 47.5757 42.175 47.4956 42.1505 47.4189L39.8284 40.136Z" fill="#ff1744"/>
<path d="M14.9062 39.0651L19.2222 33.0399C19.3318 32.887 19.3824 32.6998 19.365 32.5126C19.3476 32.3253 19.2632 32.1507 19.1274 32.0207L18.8823 31.786C18.468 31.3887 17.939 31.132 17.3705 31.0525C16.802 30.973 16.2229 31.0747 15.7155 31.3431L14.8854 31.7811L17.7051 24.3902C17.8578 24.0377 17.9345 23.6569 17.9302 23.2728C17.9259 22.8886 17.8407 22.5096 17.6802 22.1606C17.5196 21.8116 17.2873 21.5003 16.9984 21.247C16.7095 20.9938 16.3705 20.8043 16.0034 20.6908L15.8626 20.6473C15.7086 20.5997 15.5435 20.601 15.3902 20.6509C15.2369 20.7008 15.1028 20.7969 15.0063 20.9261L9.91411 27.7393C9.41432 28.3752 9.03534 29.0972 8.79595 29.8698L5.91406 38.5201L1.64083 47.3293C1.58928 47.4356 1.56249 47.5522 1.5625 47.6703V48.4375H3.125V47.8498L7.3421 39.1562C7.35689 39.1257 7.36968 39.0943 7.38039 39.0621L10.281 30.3557C10.2828 30.3504 10.2845 30.3451 10.2862 30.3396C10.4699 29.744 10.7621 29.1875 11.148 28.698C11.1521 28.6929 11.1561 28.6876 11.16 28.6824L15.8882 22.3561C16.1038 22.5146 16.2588 22.7419 16.3278 23.0004C16.3968 23.2589 16.3755 23.5332 16.2675 23.778C16.262 23.7905 16.2568 23.8031 16.2519 23.8158L12.6865 33.1611C12.6299 33.3095 12.6199 33.4716 12.6577 33.6258C12.6956 33.78 12.7796 33.9191 12.8985 34.0244C13.0174 34.1297 13.1655 34.1962 13.3232 34.2152C13.4809 34.2341 13.6406 34.2046 13.7811 34.1305L16.4447 32.725C16.6117 32.6367 16.7976 32.5901 16.9864 32.5892C17.1753 32.5883 17.3616 32.6332 17.5294 32.7199L13.7438 38.0047L10.5524 39.6818C10.3708 39.7774 10.234 39.9405 10.1716 40.1361L7.8494 47.4189C7.82494 47.4956 7.8125 47.5757 7.8125 47.6563V48.4375H9.375V47.7778L11.5629 40.916L14.6346 39.3018C14.7423 39.2451 14.8354 39.1641 14.9062 39.0651V39.0651Z" fill="#ff1744"/>
<path d="M29.7154 40.8323C29.7538 40.972 29.8303 41.0982 29.9363 41.1969C30.0422 41.2956 30.1735 41.3629 30.3155 41.3913L37.3468 42.7975L37.6532 41.2653L31.0943 39.9535L30.0473 36.146C30.0848 36.1156 30.1223 36.0849 30.1597 36.0538C30.5168 36.1399 30.8827 36.1832 31.25 36.1828V34.6203C29.4977 34.6203 28.125 33.1403 28.125 31.2509C28.1218 30.8006 28.2075 30.3542 28.3773 29.9371C28.547 29.52 28.7974 29.1406 29.114 28.8205C29.2446 28.6891 29.3242 28.5155 29.3387 28.3308C29.3531 28.1461 29.3015 27.9623 29.1929 27.8122C28.7662 27.2205 28.5383 26.5086 28.542 25.7791C28.542 24.4327 29.3045 23.218 30.4847 22.6843C30.5916 22.636 30.6863 22.5642 30.7616 22.4743C30.837 22.3843 30.8911 22.2786 30.92 22.1648C30.9489 22.0511 30.9518 21.9323 30.9285 21.8173C30.9052 21.7023 30.8563 21.594 30.7854 21.5005C30.579 21.2297 30.4677 20.8983 30.4687 20.5578C30.4687 20.2794 30.5431 20.006 30.6841 19.766C30.8252 19.5259 31.0279 19.328 31.2711 19.1925C31.5144 19.0571 31.7894 18.9892 32.0678 18.9957C32.3461 19.0023 32.6176 19.0831 32.8543 19.2298C32.9787 19.3071 33.1224 19.3479 33.2689 19.3475C33.4154 19.3472 33.5589 19.3056 33.683 19.2277C34.1761 18.9162 34.7474 18.7506 35.3307 18.75C37.1019 18.75 38.5429 20.2615 38.5429 22.1194C38.5441 22.7199 38.3901 23.3105 38.0959 23.834L39.4558 24.6035C39.9112 23.7933 40.1349 22.8734 40.1023 21.9446C40.0698 21.0157 39.7823 20.1138 39.2713 19.3374C40.2716 17.5921 40.5921 15.5388 40.1713 13.5716C39.7506 11.6045 38.6183 9.86197 36.9916 8.67844L36.7641 8.51298C36.2369 8.12955 35.6955 7.77401 35.1398 7.44634C34.9956 5.83825 33.9016 4.36668 32.0227 3.27072C30.1344 2.16913 27.6403 1.5625 25 1.5625C22.3597 1.5625 19.8656 2.16913 17.9772 3.27072C16.0983 4.36668 15.0043 5.83822 14.8601 7.44631C14.305 7.77383 13.7636 8.12938 13.2358 8.51298L13.0084 8.67844C12.0382 9.38158 11.236 10.2913 10.6598 11.342L12.0286 12.0955C12.4945 11.2461 13.143 10.5105 13.9275 9.94205L14.1549 9.77659C17.3065 7.4846 21.1031 6.25 25 6.25C28.8969 6.25 32.6935 7.4846 35.8451 9.77659L36.0726 9.94205C37.3207 10.8502 38.211 12.1672 38.5887 13.6638C38.9665 15.1604 38.8077 16.7421 38.14 18.1338C37.5036 17.6514 36.7541 17.3405 35.9631 17.2307C35.3323 15.2765 34.3023 13.7032 32.8964 12.5486C31.2923 11.2313 29.1843 10.4496 26.6309 10.2253L26.4942 11.7818C30.5337 12.1367 33.1072 13.9435 34.3341 17.296C33.9583 17.3788 33.5943 17.5079 33.2503 17.6802C32.686 17.4419 32.0642 17.3745 31.4619 17.4865C30.8597 17.5984 30.3036 17.8848 29.8627 18.31C29.4218 18.7352 29.1154 19.2805 28.9817 19.8783C28.8479 20.476 28.8927 21.0999 29.1103 21.6724C28.1027 22.3851 27.3914 23.4426 27.1112 24.6446C26.831 25.8465 27.0013 27.1095 27.5899 28.1943C26.9185 29.0713 26.5571 30.1464 26.5625 31.2509C26.5625 32.9563 27.3455 34.4339 28.5623 35.3161C27.3042 36.2269 26.066 36.7188 25 36.7188C23.934 36.7188 22.6957 36.2269 21.4377 35.3161C22.6544 34.434 23.4375 32.9564 23.4375 31.2509C23.4428 30.1464 23.0815 29.0713 22.4101 28.1943C22.9987 27.1096 23.169 25.8466 22.8888 24.6446C22.6086 23.4426 21.8973 22.3852 20.8896 21.6725C21.1079 21.1 21.1531 20.4758 21.0196 19.8778C20.8861 19.2797 20.5798 18.7341 20.1387 18.3087C19.6976 17.8833 19.1412 17.5969 18.5387 17.4852C17.9362 17.3735 17.3141 17.4413 16.7498 17.6802C16.4062 17.508 16.0425 17.3791 15.6672 17.2962C16.2764 15.6441 17.2284 14.3503 18.5051 13.4428C20.1144 12.2988 22.2996 11.7188 25 11.7188V10.1562C21.9687 10.1562 19.4789 10.8335 17.5998 12.1693C15.9366 13.3516 14.7397 15.0526 14.0369 17.2307C13.2459 17.3405 12.4963 17.6515 11.8599 18.1339C11.1662 16.6872 11.0227 15.0374 11.4564 13.4927L9.9522 13.0698C9.65905 14.1138 9.57672 15.2056 9.71001 16.2817C9.84331 17.3578 10.1896 18.3966 10.7286 19.3374C10.2176 20.1138 9.93018 21.0157 9.89764 21.9445C9.8651 22.8734 10.0887 23.7932 10.5441 24.6034L11.904 23.834C11.6099 23.3105 11.4559 22.7199 11.457 22.1194C11.457 20.2615 12.8981 18.75 14.6693 18.75C15.2526 18.7506 15.8239 18.9162 16.317 19.2277C16.4411 19.3057 16.5845 19.3473 16.7311 19.3476C16.8776 19.348 17.0213 19.3072 17.1457 19.2298C17.4557 19.0376 17.8232 18.9599 18.1845 19.0102C18.5458 19.0606 18.8781 19.2357 19.1238 19.5053C19.3694 19.775 19.513 20.1221 19.5296 20.4864C19.5462 20.8508 19.4348 21.2095 19.2147 21.5004C19.1438 21.5939 19.0948 21.7022 19.0715 21.8172C19.0482 21.9322 19.0511 22.051 19.08 22.1647C19.1088 22.2784 19.163 22.3842 19.2383 22.4742C19.3137 22.5641 19.4083 22.6359 19.5153 22.6843C20.6954 23.218 21.458 24.4328 21.458 25.779C21.4617 26.5085 21.2338 27.2204 20.8071 27.8122C20.6985 27.9623 20.6469 28.1461 20.6613 28.3308C20.6758 28.5155 20.7554 28.689 20.8859 28.8205C21.2026 29.1406 21.453 29.52 21.6227 29.9371C21.7925 30.3541 21.8782 30.8006 21.875 31.2509C21.875 33.1403 20.5023 34.6203 18.75 34.6203V36.1828C19.1172 36.1832 19.4831 36.1399 19.8401 36.0539C19.8776 36.085 19.9152 36.1158 19.9527 36.1462L18.9057 39.9536L12.3468 41.2654L12.6532 42.7976L19.6844 41.3914C19.8265 41.363 19.9578 41.2957 20.0637 41.197C20.1697 41.0983 20.2462 40.972 20.2846 40.8324L21.3086 37.1086C22.5771 37.8806 23.8289 38.2812 25 38.2812C26.1711 38.2812 27.4228 37.8806 28.6914 37.1085L29.7154 40.8323ZM25 4.6875C22.1721 4.68232 19.3757 5.28026 16.7972 6.44141C17.9016 4.54462 21.2118 3.125 25 3.125C28.7882 3.125 32.0984 4.54462 33.2028 6.44141C30.6243 5.28025 27.8278 4.68232 25 4.6875V4.6875Z" fill="#ff1744"/>
<path d="M29.6875 43.0422V42.9688H28.125V43.0422C28.1234 43.6437 28.336 44.2261 28.7248 44.685C29.1136 45.1439 29.6531 45.4494 30.2466 45.5467L38.1528 46.8644L38.4097 45.3231L30.5035 44.0054C30.2752 43.968 30.0677 43.8505 29.9182 43.674C29.7687 43.4975 29.6869 43.2735 29.6875 43.0422V43.0422Z" fill="#ff1744"/>
<path d="M20.3125 43.0422C20.3132 43.2735 20.2314 43.4975 20.0818 43.674C19.9323 43.8505 19.7248 43.968 19.4965 44.0054L11.5903 45.3231L11.8472 46.8644L19.7533 45.5467C20.3469 45.4494 20.8864 45.144 21.2752 44.685C21.664 44.2261 21.8767 43.6437 21.875 43.0422V42.9688H20.3125V43.0422Z" fill="#ff1744"/>
</svg>
